<svg width="71" height="72" fill="none" xmlns="http://www.w3.org/2000/svg"><path fill-rule="evenodd" clip-rule="evenodd" d="M38.95 62.557h2.361c.652 0 1.18.529 1.18 1.18v2.361a5.902 5.902 0 0 1-5.9 5.902H5.9A5.902 5.902 0 0 1 0 66.098v-2.36c0-.652.528-1.18 1.18-1.18h2.361V37.77c0-.652.528-1.18 1.18-1.18h11.001a1.18 1.18 0 0 1 0 2.36h-9.82v23.607H36.59V50.99a1.18 1.18 0 1 1 2.36 0v11.567Zm-2.36 7.082a3.541 3.541 0 0 0 3.541-3.54v-1.181H2.361v1.18A3.541 3.541 0 0 0 5.9 69.64h2.361v-1.18a1.18 1.18 0 0 1 2.361 0v1.18h21.246v-1.18a1.18 1.18 0 0 1 2.36 0v1.18h2.361Z" fill="#000"/><path d="M61.377 8.262h2.36a1.18 1.18 0 1 0 0-2.36h-2.36a3.54 3.54 0 0 0-3.54 3.54v1.18h-1.181a1.18 1.18 0 0 0 0 2.362h1.18v3.54a1.18 1.18 0 0 0 2.36 0v-3.54h1.181a1.18 1.18 0 0 0 0-2.361h-1.18v-1.18c0-.652.528-1.18 1.18-1.18Z" fill="#000"/><path d="M67.279 1.18H53.115a3.541 3.541 0 0 0-3.541 3.541v2.361a1.18 1.18 0 1 0 2.36 0v-2.36c0-.652.529-1.18 1.18-1.18H67.28c.652 0 1.18.528 1.18 1.18v14.163a1.18 1.18 0 0 1-1.18 1.18H53.115a1.18 1.18 0 0 1-1.18-1.18v-7.082a1.18 1.18 0 1 0-2.361 0v7.082a3.54 3.54 0 0 0 3.54 3.541H67.28a3.541 3.541 0 0 0 3.54-3.54V4.72a3.541 3.541 0 0 0-3.54-3.54Z" fill="#000"/><path fill-rule="evenodd" clip-rule="evenodd" d="M60.197 53.115a4.721 4.721 0 1 1 0-9.443 4.721 4.721 0 0 1 0 9.443Zm0-2.36a2.36 2.36 0 1 0 0-4.722 2.36 2.36 0 0 0 0 4.721Z" fill="#000"/><path d="M67.279 37.77H53.115a3.541 3.541 0 0 0-3.541 3.541v14.164a3.54 3.54 0 0 0 3.54 3.541H67.28a3.541 3.541 0 0 0 3.54-3.54v-2.361a1.18 1.18 0 0 0-2.36 0v2.36a1.18 1.18 0 0 1-1.18 1.18H53.115a1.18 1.18 0 0 1-1.18-1.18V41.312c0-.652.528-1.18 1.18-1.18h14.164c.652 0 1.18.528 1.18 1.18v7.082a1.18 1.18 0 0 0 2.36 0v-7.082a3.541 3.541 0 0 0-3.54-3.541Z" fill="#000"/><path fill-rule="evenodd" clip-rule="evenodd" d="M27.148 15.344a1.18 1.18 0 0 1-1.18-1.18V7.082a1.18 1.18 0 0 1 1.71-1.05l7.083 3.54a1.18 1.18 0 0 1 0 2.102l-7.082 3.54a1.181 1.181 0 0 1-.531.13Zm4.438-4.721-3.258-1.629v3.258l3.258-1.629Z" fill="#000"/><path fill-rule="evenodd" clip-rule="evenodd" d="M40.131 10.623c0 5.867-4.756 10.623-10.623 10.623-5.867 0-10.623-4.756-10.623-10.623C18.885 4.756 23.641 0 29.508 0c5.867 0 10.623 4.756 10.623 10.623Zm-2.36 0a8.262 8.262 0 1 0-16.525 0 8.262 8.262 0 0 0 16.524 0Z" fill="#000"/><path d="M41.312 25.967c.371 0 .72-.175.944-.472l3.54-4.721a1.18 1.18 0 1 0-1.888-1.416l-3.54 4.72a1.18 1.18 0 0 0 .944 1.89Zm2.596 4.249a1.18 1.18 0 0 0 1.653.236l4.721-3.54a1.18 1.18 0 1 0-1.416-1.889l-4.722 3.541a1.18 1.18 0 0 0-.236 1.652Zm11.567 2.597a1.18 1.18 0 0 0-1.416-.944l-5.902 1.18a1.186 1.186 0 0 0 .236 2.36h.236l5.902-1.18a1.18 1.18 0 0 0 .944-1.416Z" fill="#000"/><path fill-rule="evenodd" clip-rule="evenodd" d="M15.344 33.05H1.18A1.18 1.18 0 0 1 0 31.868V12.984c0-.652.528-1.18 1.18-1.18h14.164c.652 0 1.18.528 1.18 1.18v18.885a1.18 1.18 0 0 1-1.18 1.18Zm-1.18-18.886H2.36v16.525h11.803V14.164Z" fill="#000"/><path d="M10.623 16.525h-2.36a1.18 1.18 0 1 0 0 2.36h2.36a1.18 1.18 0 0 0 0-2.36Zm0 4.721H5.902a1.18 1.18 0 0 0 0 2.36h4.721a1.18 1.18 0 0 0 0-2.36Zm0 4.721H5.902a1.18 1.18 0 1 0 0 2.36h4.721a1.18 1.18 0 0 0 0-2.36Z" fill="#000"/><path fill-rule="evenodd" clip-rule="evenodd" d="M40.273 32.695a1.185 1.185 0 0 0-2.054 1.18l5.205 9.006-18.885 7.082h-.177l-3.069 1.77-2.042 1.181a2.36 2.36 0 0 1-3.222-.861l-2.36-4.084a2.36 2.36 0 0 1 .884-3.117l4.084-2.36 2.951 5.11a1.18 1.18 0 0 0 1.027.59 1.18 1.18 0 0 0 1.027-1.77l-3.045-5.264L35.41 28.942l.484.838a1.184 1.184 0 1 0 2.053-1.18l-1.18-2.043a1.18 1.18 0 0 0-.814-.566 1.18 1.18 0 0 0-.968.248L18.46 39.859l-5.028 2.904a4.721 4.721 0 0 0-2.172 5.347l-1.18.673a3.541 3.541 0 0 0 1.77 6.61 3.612 3.612 0 0 0 1.771-.472l1.18-.673a4.58 4.58 0 0 0 3.305 1.393 4.651 4.651 0 0 0 2.36-.638l1.028-.59 2.36 4.096a3.541 3.541 0 0 0 4.828 1.298 3.541 3.541 0 0 0 1.298-4.84l-2.148-3.74 17.705-6.646a1.18 1.18 0 0 0 .696-.708 1.18 1.18 0 0 0-.082-.98l-5.878-10.198Zm-27.88 20.172a1.18 1.18 0 0 1-.897.118 1.18 1.18 0 0 1-.72-.543 1.18 1.18 0 0 1 .437-1.617l1.027-.59 1.18 2.042-1.027.59Zm15.652 4.202a1.18 1.18 0 0 0-.118-.897l-2.35-4.037h-.094l-1.96 1.122 2.362 4.095a1.18 1.18 0 0 0 1.605.425 1.18 1.18 0 0 0 .555-.708Z" fill="#000"/></svg>