<svg width="72" height="36" fill="none" xmlns="http://www.w3.org/2000/svg"><path d="M71.087 19.105a1.056 1.056 0 0 0-1.19.904 15.715 15.715 0 0 1-5.2 9.667 15.714 15.714 0 0 1-10.384 3.914c-2.082 0-4.104-.4-6.01-1.189a1.188 1.188 0 0 0-.102-.036c-.022-.007-2.272-.71-5.621-3.368a1.056 1.056 0 1 0-1.313 1.654c3.436 2.728 5.85 3.584 6.271 3.72 2.15.883 4.43 1.331 6.775 1.331 4.34 0 8.523-1.577 11.779-4.44a17.827 17.827 0 0 0 5.898-10.967 1.056 1.056 0 0 0-.903-1.19Z" fill="#000"/><path fill-rule="evenodd" clip-rule="evenodd" d="M54.383 29.21c-3.683 0-6.47-2.043-8.712-4.041a79.591 79.591 0 0 1-5.482-5.415c-.35.415-1.335 1.612-2.14 2.59l-1.026 1.245c.653.757 1.32 1.484 1.984 2.164a1.056 1.056 0 0 1-1.51 1.476 49.351 49.351 0 0 1-1.83-1.98c-6.315 7.687-10.23 8.95-11.104 9.143a17.738 17.738 0 0 1-5.986 1.295h-.022l-.691.015h-.022A17.72 17.72 0 0 1 5.18 30.43 17.722 17.722 0 0 1 0 17.727C.035 12.972 1.934 8.506 5.348 5.15 8.763 1.793 13.26-.032 18.023.018c2.219.022 4.38.447 6.426 1.263.097.038.194.076.293.113.972.364 5.916 2.469 11.483 9.398 6.47-7.974 10.483-9.269 11.366-9.466A17.74 17.74 0 0 1 53.6.031l.691-.014h.022a17.846 17.846 0 0 1 17.626 15.059 1.056 1.056 0 0 1-2.087.327A15.73 15.73 0 0 0 54.324 2.129l-.67.013c-1.85.077-3.65.472-5.35 1.176a.795.795 0 0 1-.231.066c-.213.049-4.066 1.037-10.564 9.181l-.006.009-.007.008S30.153 21.327 27.11 24.52c-2.08 2.183-5.021 4.688-9.337 4.688-6.258 0-11.35-5.091-11.35-11.35a11.34 11.34 0 0 1 5.061-9.45 1.056 1.056 0 0 1 1.172 1.757 9.23 9.23 0 0 0-4.12 7.693c0 5.094 4.144 9.238 9.238 9.238 2.74 0 5.149-1.244 7.808-4.034a161.72 161.72 0 0 0 5.001-5.481 78.463 78.463 0 0 0-5.503-5.456c-3.463-3.087-5.637-3.505-7.306-3.505h-.004c-.308 0-.618.016-.922.046a1.057 1.057 0 0 1-.209-2.102c.373-.037.754-.056 1.13-.056h.004c3.684 0 6.471 2.043 8.713 4.04a79.589 79.589 0 0 1 5.481 5.415 695.17 695.17 0 0 0 2.886-3.505c-5.455-6.924-10.3-8.881-10.85-9.087a17.801 17.801 0 0 1-.335-.13 15.65 15.65 0 0 0-5.824-1.113c-4.134 0-8.04 1.604-11.015 4.527-3.01 2.96-4.685 6.896-4.715 11.085a15.624 15.624 0 0 0 4.566 11.2 15.622 15.622 0 0 0 11.153 4.649l.67-.014c1.85-.076 3.65-.471 5.35-1.175a.8.8 0 0 1 .231-.066c.215-.05 4.146-1.059 10.765-9.435.25-.317 7.154-8.508 10.198-11.702 2.08-2.183 5.022-4.688 9.337-4.688 6.258 0 11.35 5.091 11.35 11.35 0 6.256-5.09 11.347-11.346 11.35h-.004Zm0-20.588c-2.742 0-5.15 1.243-7.808 4.033a162.237 162.237 0 0 0-5.002 5.481 78.336 78.336 0 0 0 5.503 5.457c3.463 3.087 5.637 3.504 7.307 3.504h.003c5.092-.002 9.235-4.146 9.235-9.238 0-5.093-4.145-9.237-9.238-9.237Z" fill="#000"/></svg>