<svg width="72" height="72" fill="none" xmlns="http://www.w3.org/2000/svg"><path fill-rule="evenodd" clip-rule="evenodd" d="M30.012 31.49c.654 0 1.183.53 1.183 1.183v31.195c0 .654-.529 1.183-1.183 1.183H4.88c-.653 0-1.183-.53-1.183-1.183V32.673c0-.653.53-1.182 1.183-1.182h25.133ZM6.062 62.687H28.83v-28.83H6.062v28.83Z" fill="#000"/><path d="M18.636 66.086h-2.37a1.182 1.182 0 1 0 0 2.366h2.37a1.183 1.183 0 0 0 0-2.366Z" fill="#000"/><path fill-rule="evenodd" clip-rule="evenodd" d="M68.33 0H52.298C50.32 0 48.64 1.545 48.64 3.523v6.235H12.292a6.694 6.694 0 0 0-6.674 6.696v11.34h-.724C2.168 27.795 0 30.063 0 32.792V66.96a4.864 4.864 0 0 0 4.897 4.893h26.086a3.91 3.91 0 0 0 2.835-1.183c.743-.765 1.221-1.737 1.073-2.798v-5.777h27.576a6.736 6.736 0 0 0 6.724-6.696V51.17a1.23 1.23 0 0 0-1.223-1.198h-1.734V38.44h2.095c1.978 0 3.523-1.678 3.523-3.656V3.523A3.482 3.482 0 0 0 68.33 0ZM51.005 7.688h18.48V28.83h-18.48V7.688ZM68.33 2.365H52.3c-.674 0-1.293.485-1.293 1.158v1.8h18.48v-1.8a1.116 1.116 0 0 0-1.157-1.158ZM7.984 16.454a4.326 4.326 0 0 1 4.308-4.33h36.349v3.4H12.22c-.654 0-1.132.594-1.132 1.247v11.024H7.984V16.454Zm22.998 53.033c.439.014.863-.154 1.174-.463.285-.3.433-.703.407-1.115 0-.006-.01-.008-.018-.01-.01-.002-.018-.004-.018-.01V32.791c0-1.426-1.1-2.63-2.529-2.63H4.897c-1.426 0-2.532 1.204-2.532 2.633v34.161a2.502 2.502 0 0 0 2.536 2.532h26.081Zm-.98-41.692H13.454v-9.906H48.64v16.894a3.712 3.712 0 0 0 3.658 3.656h6.1v11.532H43.995a1.192 1.192 0 0 0-.87.389l-1.116 1.194a4.312 4.312 0 0 1-3.175 1.374H34.89v-20.14c0-2.726-2.16-4.993-4.89-4.993Zm32.465 31.934a4.368 4.368 0 0 0 4.358-4.33v-3.062h-22.31l-.765.816a6.689 6.689 0 0 1-4.915 2.14h-3.944v4.436h27.576Zm1.402-9.758h-3.105V38.44h3.105v11.532Zm-11.57-13.897h16.03c.674 0 1.158-.617 1.158-1.291v-3.588h-18.48v3.588a1.346 1.346 0 0 0 1.292 1.29Z" fill="#000"/><path d="M61.947 32.23h-3.105a1.183 1.183 0 0 0 0 2.366h3.105a1.182 1.182 0 1 0 0-2.366Z" fill="#000"/></svg>