<svg viewBox="0 0 72 72" xmlns="http://www.w3.org/2000/svg"><style><![CDATA[:root>svg{display:none}:root>svg:target{display:block}]]></style><svg fill="none" viewBox="0 0 71 72" id="bullhorn" xmlns="http://www.w3.org/2000/svg"><path fill-rule="evenodd" clip-rule="evenodd" d="M38.95 62.557h2.361c.652 0 1.18.529 1.18 1.18v2.361a5.902 5.902 0 0 1-5.9 5.902H5.9A5.902 5.902 0 0 1 0 66.098v-2.36c0-.652.528-1.18 1.18-1.18h2.361V37.77c0-.652.528-1.18 1.18-1.18h11.001a1.18 1.18 0 0 1 0 2.36h-9.82v23.607H36.59V50.99a1.18 1.18 0 1 1 2.36 0v11.567zm-2.36 7.082a3.541 3.541 0 0 0 3.541-3.54v-1.181H2.361v1.18A3.541 3.541 0 0 0 5.9 69.64h2.361v-1.18a1.18 1.18 0 0 1 2.361 0v1.18h21.246v-1.18a1.18 1.18 0 0 1 2.36 0v1.18h2.361z" fill="#000"/><path d="M61.377 8.262h2.36a1.18 1.18 0 1 0 0-2.36h-2.36a3.54 3.54 0 0 0-3.54 3.54v1.18h-1.181a1.18 1.18 0 0 0 0 2.362h1.18v3.54a1.18 1.18 0 0 0 2.36 0v-3.54h1.181a1.18 1.18 0 0 0 0-2.361h-1.18v-1.18c0-.652.528-1.18 1.18-1.18z" fill="#000"/><path d="M67.279 1.18H53.115a3.541 3.541 0 0 0-3.541 3.541v2.361a1.18 1.18 0 1 0 2.36 0v-2.36c0-.652.529-1.18 1.18-1.18H67.28c.652 0 1.18.528 1.18 1.18v14.163a1.18 1.18 0 0 1-1.18 1.18H53.115a1.18 1.18 0 0 1-1.18-1.18v-7.082a1.18 1.18 0 1 0-2.361 0v7.082a3.54 3.54 0 0 0 3.54 3.541H67.28a3.541 3.541 0 0 0 3.54-3.54V4.72a3.541 3.541 0 0 0-3.54-3.54z" fill="#000"/><path fill-rule="evenodd" clip-rule="evenodd" d="M60.197 53.115a4.721 4.721 0 1 1 0-9.443 4.721 4.721 0 0 1 0 9.443zm0-2.36a2.36 2.36 0 1 0 0-4.722 2.36 2.36 0 0 0 0 4.721z" fill="#000"/><path d="M67.279 37.77H53.115a3.541 3.541 0 0 0-3.541 3.541v14.164a3.54 3.54 0 0 0 3.54 3.541H67.28a3.541 3.541 0 0 0 3.54-3.54v-2.361a1.18 1.18 0 0 0-2.36 0v2.36a1.18 1.18 0 0 1-1.18 1.18H53.115a1.18 1.18 0 0 1-1.18-1.18V41.312c0-.652.528-1.18 1.18-1.18h14.164c.652 0 1.18.528 1.18 1.18v7.082a1.18 1.18 0 0 0 2.36 0v-7.082a3.541 3.541 0 0 0-3.54-3.541z" fill="#000"/><path fill-rule="evenodd" clip-rule="evenodd" d="M27.148 15.344a1.18 1.18 0 0 1-1.18-1.18V7.082a1.18 1.18 0 0 1 1.71-1.05l7.083 3.54a1.18 1.18 0 0 1 0 2.102l-7.082 3.54a1.181 1.181 0 0 1-.531.13zm4.438-4.721-3.258-1.629v3.258l3.258-1.629z" fill="#000"/><path fill-rule="evenodd" clip-rule="evenodd" d="M40.131 10.623c0 5.867-4.756 10.623-10.623 10.623-5.867 0-10.623-4.756-10.623-10.623C18.885 4.756 23.641 0 29.508 0c5.867 0 10.623 4.756 10.623 10.623zm-2.36 0a8.262 8.262 0 1 0-16.525 0 8.262 8.262 0 0 0 16.524 0z" fill="#000"/><path d="M41.312 25.967c.371 0 .72-.175.944-.472l3.54-4.721a1.18 1.18 0 1 0-1.888-1.416l-3.54 4.72a1.18 1.18 0 0 0 .944 1.89zm2.596 4.249a1.18 1.18 0 0 0 1.653.236l4.721-3.54a1.18 1.18 0 1 0-1.416-1.889l-4.722 3.541a1.18 1.18 0 0 0-.236 1.652zm11.567 2.597a1.18 1.18 0 0 0-1.416-.944l-5.902 1.18a1.186 1.186 0 0 0 .236 2.36h.236l5.902-1.18a1.18 1.18 0 0 0 .944-1.416z" fill="#000"/><path fill-rule="evenodd" clip-rule="evenodd" d="M15.344 33.05H1.18A1.18 1.18 0 0 1 0 31.868V12.984c0-.652.528-1.18 1.18-1.18h14.164c.652 0 1.18.528 1.18 1.18v18.885a1.18 1.18 0 0 1-1.18 1.18zm-1.18-18.886H2.36v16.525h11.803V14.164z" fill="#000"/><path d="M10.623 16.525h-2.36a1.18 1.18 0 1 0 0 2.36h2.36a1.18 1.18 0 0 0 0-2.36zm0 4.721H5.902a1.18 1.18 0 0 0 0 2.36h4.721a1.18 1.18 0 0 0 0-2.36zm0 4.721H5.902a1.18 1.18 0 1 0 0 2.36h4.721a1.18 1.18 0 0 0 0-2.36z" fill="#000"/><path fill-rule="evenodd" clip-rule="evenodd" d="M40.273 32.695a1.185 1.185 0 0 0-2.054 1.18l5.205 9.006-18.885 7.082h-.177l-3.069 1.77-2.042 1.181a2.36 2.36 0 0 1-3.222-.861l-2.36-4.084a2.36 2.36 0 0 1 .884-3.117l4.084-2.36 2.951 5.11a1.18 1.18 0 0 0 1.027.59 1.18 1.18 0 0 0 1.027-1.77l-3.045-5.264L35.41 28.942l.484.838a1.184 1.184 0 1 0 2.053-1.18l-1.18-2.043a1.18 1.18 0 0 0-.814-.566 1.18 1.18 0 0 0-.968.248L18.46 39.859l-5.028 2.904a4.721 4.721 0 0 0-2.172 5.347l-1.18.673a3.541 3.541 0 0 0 1.77 6.61 3.612 3.612 0 0 0 1.771-.472l1.18-.673a4.58 4.58 0 0 0 3.305 1.393 4.651 4.651 0 0 0 2.36-.638l1.028-.59 2.36 4.096a3.541 3.541 0 0 0 4.828 1.298 3.541 3.541 0 0 0 1.298-4.84l-2.148-3.74 17.705-6.646a1.18 1.18 0 0 0 .696-.708 1.18 1.18 0 0 0-.082-.98l-5.878-10.198zm-27.88 20.172a1.18 1.18 0 0 1-.897.118 1.18 1.18 0 0 1-.72-.543 1.18 1.18 0 0 1 .437-1.617l1.027-.59 1.18 2.042-1.027.59zm15.652 4.202a1.18 1.18 0 0 0-.118-.897l-2.35-4.037h-.094l-1.96 1.122 2.362 4.095a1.18 1.18 0 0 0 1.605.425 1.18 1.18 0 0 0 .555-.708z" fill="#000"/></svg><svg fill="none" viewBox="0 0 72 36" id="forever" xmlns="http://www.w3.org/2000/svg"><path d="M71.087 19.105a1.056 1.056 0 0 0-1.19.904 15.715 15.715 0 0 1-5.2 9.667 15.714 15.714 0 0 1-10.384 3.914c-2.082 0-4.104-.4-6.01-1.189a1.188 1.188 0 0 0-.102-.036c-.022-.007-2.272-.71-5.621-3.368a1.056 1.056 0 1 0-1.313 1.654c3.436 2.728 5.85 3.584 6.271 3.72 2.15.883 4.43 1.331 6.775 1.331 4.34 0 8.523-1.577 11.779-4.44a17.827 17.827 0 0 0 5.898-10.967 1.056 1.056 0 0 0-.903-1.19z" fill="#000"/><path fill-rule="evenodd" clip-rule="evenodd" d="M54.383 29.21c-3.683 0-6.47-2.043-8.712-4.041a79.591 79.591 0 0 1-5.482-5.415c-.35.415-1.335 1.612-2.14 2.59l-1.026 1.245c.653.757 1.32 1.484 1.984 2.164a1.056 1.056 0 0 1-1.51 1.476 49.351 49.351 0 0 1-1.83-1.98c-6.315 7.687-10.23 8.95-11.104 9.143a17.738 17.738 0 0 1-5.986 1.295h-.022l-.691.015h-.022A17.72 17.72 0 0 1 5.18 30.43 17.722 17.722 0 0 1 0 17.727C.035 12.972 1.934 8.506 5.348 5.15 8.763 1.793 13.26-.032 18.023.018c2.219.022 4.38.447 6.426 1.263.097.038.194.076.293.113.972.364 5.916 2.469 11.483 9.398 6.47-7.974 10.483-9.269 11.366-9.466A17.74 17.74 0 0 1 53.6.031l.691-.014h.022a17.846 17.846 0 0 1 17.626 15.059 1.056 1.056 0 0 1-2.087.327A15.73 15.73 0 0 0 54.324 2.129l-.67.013c-1.85.077-3.65.472-5.35 1.176a.795.795 0 0 1-.231.066c-.213.049-4.066 1.037-10.564 9.181l-.006.009-.007.008S30.153 21.327 27.11 24.52c-2.08 2.183-5.021 4.688-9.337 4.688-6.258 0-11.35-5.091-11.35-11.35a11.34 11.34 0 0 1 5.061-9.45 1.056 1.056 0 0 1 1.172 1.757 9.23 9.23 0 0 0-4.12 7.693c0 5.094 4.144 9.238 9.238 9.238 2.74 0 5.149-1.244 7.808-4.034a161.72 161.72 0 0 0 5.001-5.481 78.463 78.463 0 0 0-5.503-5.456c-3.463-3.087-5.637-3.505-7.306-3.505h-.004c-.308 0-.618.016-.922.046a1.057 1.057 0 0 1-.209-2.102c.373-.037.754-.056 1.13-.056h.004c3.684 0 6.471 2.043 8.713 4.04a79.589 79.589 0 0 1 5.481 5.415 695.17 695.17 0 0 0 2.886-3.505c-5.455-6.924-10.3-8.881-10.85-9.087a17.801 17.801 0 0 1-.335-.13 15.65 15.65 0 0 0-5.824-1.113c-4.134 0-8.04 1.604-11.015 4.527-3.01 2.96-4.685 6.896-4.715 11.085a15.624 15.624 0 0 0 4.566 11.2 15.622 15.622 0 0 0 11.153 4.649l.67-.014c1.85-.076 3.65-.471 5.35-1.175a.8.8 0 0 1 .231-.066c.215-.05 4.146-1.059 10.765-9.435.25-.317 7.154-8.508 10.198-11.702 2.08-2.183 5.022-4.688 9.337-4.688 6.258 0 11.35 5.091 11.35 11.35 0 6.256-5.09 11.347-11.346 11.35h-.004zm0-20.588c-2.742 0-5.15 1.243-7.808 4.033a162.237 162.237 0 0 0-5.002 5.481 78.336 78.336 0 0 0 5.503 5.457c3.463 3.087 5.637 3.504 7.307 3.504h.003c5.092-.002 9.235-4.146 9.235-9.238 0-5.093-4.145-9.237-9.238-9.237z" fill="#000"/></svg><svg fill="none" viewBox="0 0 72 72" id="responsive" xmlns="http://www.w3.org/2000/svg"><path fill-rule="evenodd" clip-rule="evenodd" d="M30.012 31.49c.654 0 1.183.53 1.183 1.183v31.195c0 .654-.529 1.183-1.183 1.183H4.88c-.653 0-1.183-.53-1.183-1.183V32.673c0-.653.53-1.182 1.183-1.182h25.133zM6.062 62.687H28.83v-28.83H6.062v28.83z" fill="#000"/><path d="M18.636 66.086h-2.37a1.182 1.182 0 1 0 0 2.366h2.37a1.183 1.183 0 0 0 0-2.366z" fill="#000"/><path fill-rule="evenodd" clip-rule="evenodd" d="M68.33 0H52.298C50.32 0 48.64 1.545 48.64 3.523v6.235H12.292a6.694 6.694 0 0 0-6.674 6.696v11.34h-.724C2.168 27.795 0 30.063 0 32.792V66.96a4.864 4.864 0 0 0 4.897 4.893h26.086a3.91 3.91 0 0 0 2.835-1.183c.743-.765 1.221-1.737 1.073-2.798v-5.777h27.576a6.736 6.736 0 0 0 6.724-6.696V51.17a1.23 1.23 0 0 0-1.223-1.198h-1.734V38.44h2.095c1.978 0 3.523-1.678 3.523-3.656V3.523A3.482 3.482 0 0 0 68.33 0zM51.005 7.688h18.48V28.83h-18.48V7.688zM68.33 2.365H52.3c-.674 0-1.293.485-1.293 1.158v1.8h18.48v-1.8a1.116 1.116 0 0 0-1.157-1.158zM7.984 16.454a4.326 4.326 0 0 1 4.308-4.33h36.349v3.4H12.22c-.654 0-1.132.594-1.132 1.247v11.024H7.984V16.454zm22.998 53.033c.439.014.863-.154 1.174-.463.285-.3.433-.703.407-1.115 0-.006-.01-.008-.018-.01-.01-.002-.018-.004-.018-.01V32.791c0-1.426-1.1-2.63-2.529-2.63H4.897c-1.426 0-2.532 1.204-2.532 2.633v34.161a2.502 2.502 0 0 0 2.536 2.532h26.081zm-.98-41.692H13.454v-9.906H48.64v16.894a3.712 3.712 0 0 0 3.658 3.656h6.1v11.532H43.995a1.192 1.192 0 0 0-.87.389l-1.116 1.194a4.312 4.312 0 0 1-3.175 1.374H34.89v-20.14c0-2.726-2.16-4.993-4.89-4.993zm32.465 31.934a4.368 4.368 0 0 0 4.358-4.33v-3.062h-22.31l-.765.816a6.689 6.689 0 0 1-4.915 2.14h-3.944v4.436h27.576zm1.402-9.758h-3.105V38.44h3.105v11.532zm-11.57-13.897h16.03c.674 0 1.158-.617 1.158-1.291v-3.588h-18.48v3.588a1.346 1.346 0 0 0 1.292 1.29z" fill="#000"/><path d="M61.947 32.23h-3.105a1.183 1.183 0 0 0 0 2.366h3.105a1.182 1.182 0 1 0 0-2.366z" fill="#000"/></svg></svg>